<?xml version="1.0" encoding="UTF-8"?>
<svg id="Layer_2" data-name="Layer 2" xmlns="http://www.w3.org/2000/svg" viewBox="0 0 109.42 49.77">
  <defs>
    <style>
      .cls-1 {
        fill: #434345;
        stroke-width: 0px;
      }
    </style>
  </defs>
  <g id="Layer_1-2" data-name="Layer 1">
    <path class="cls-1" d="M109.42,24.89s-12.4,3.51-16.4,5.07c-1.15.45-2.26,1.2-3.45,2-1.18.8-2.37,1.71-3.55,2.71-1.18,1.01-2.29,2.07-3.33,3.18-1.06,1.14-2.11,2.29-3.14,3.45-1.03,1.16-2.05,2.23-3.06,3.22-1.01.99-1.99,1.88-2.96,2.65-.97.78-1.93,1.28-2.84,1.69-.54.25-1.84.53-2.43.65-1.07.22-4.1.25-4.1.25v-.98c.9-.16,1.98-.67,3.24-1.51,1.26-.84,2.6-1.9,4.02-3.18,1.41-1.28,2.86-2.71,4.35-4.28,1.48-1.58,2.9-3.18,4.26-4.81.9-1.06,1.9-2.09,3.02-3.08,1.12-.99,2.23-1.88,3.35-2.67,1.12-.79,2.18-1.45,3.2-1.98.33-.17.64-.31.94-.44-13.35-.06-79.86-.06-88.14.02-.41.11-.78.28-1.1.51-.33.23-.56.74-.69,1.53h-.61v-8h.61c.14.79.36,1.32.67,1.59.31.27.66.42,1.04.45,8.29.07,74.87.08,88.24.02-.3-.13-.62-.27-.95-.44-1.02-.53-2.09-1.19-3.2-1.98-1.12-.79-2.23-1.68-3.35-2.67-1.12-.99-2.12-2.02-3.02-3.08-1.36-1.63-2.78-3.24-4.26-4.81-1.48-1.58-2.93-3.01-4.35-4.28-1.41-1.28-2.75-2.34-4.02-3.18-1.27-.84-2.35-1.35-3.24-1.51v-.98s3.04.03,4.1.25c.58.12,1.88.4,2.43.65.9.41,1.87.92,2.84,1.69.97.78,1.95,1.66,2.96,2.65,1.01.99,2.03,2.07,3.06,3.22,1.03,1.16,2.08,2.31,3.14,3.45,1.03,1.12,2.14,2.18,3.33,3.18,1.18,1.01,2.37,1.91,3.55,2.71,1.18.8,2.3,1.55,3.45,2,4,1.56,16.4,5.08,16.4,5.08Z"/>
  </g>
</svg>