<svg xmlns="http://www.w3.org/2000/svg" viewBox="0 0 64 64" fill="none" stroke="#aa6e0b" stroke-width="2" stroke-linecap="round" stroke-linejoin="round">
  <!-- Artist palette - refined hand-drawn style -->

  <!-- Main palette shape -->
  <path d="M32 8C16 8 6 18 6 32c0 14 10 24 26 24c5 0 9-2 12-5c-1-3-2-6-2-9c0-10 6-15 12-15c2.5 0 4.5 0.5 6 1.5c0.5-2 1-4.5 1-7C61 18 48 8 32 8z" fill="#aa6e0b" fill-opacity="0.08"/>

  <!-- Thumb hole -->
  <ellipse cx="20" cy="40" rx="5" ry="6" fill="white"/>

  <!-- Paint dollops with varying sizes -->
  <circle cx="18" cy="20" r="4" fill="#aa6e0b" fill-opacity="0.25"/>
  <circle cx="30" cy="14" r="3.5" fill="#aa6e0b" fill-opacity="0.4"/>
  <circle cx="42" cy="16" r="3" fill="#aa6e0b" fill-opacity="0.6"/>
  <circle cx="50" cy="24" r="3.5" fill="#aa6e0b" fill-opacity="0.35"/>
  <circle cx="46" cy="36" r="2.5" fill="#aa6e0b" fill-opacity="0.5"/>

  <!-- Brush 1 - angled -->
  <g transform="rotate(-40 54 12)">
    <rect x="52" y="4" width="3" height="16" rx="1" fill="#aa6e0b" fill-opacity="0.2"/>
    <path d="M53.5 20v8" stroke-width="1.5"/>
    <ellipse cx="53.5" cy="29" rx="2" ry="4" fill="#aa6e0b"/>
  </g>

  <!-- Brush 2 - more vertical -->
  <g transform="rotate(-20 58 18)">
    <rect x="56" y="10" width="2.5" height="12" rx="1" fill="#aa6e0b" fill-opacity="0.15"/>
    <path d="M57.25 22v6" stroke-width="1.2"/>
    <ellipse cx="57.25" cy="29" rx="1.5" ry="3" fill="#aa6e0b"/>
  </g>
</svg>