<svg xmlns="http://www.w3.org/2000/svg" viewBox="0 0 64 64" fill="none" stroke="#aa6e0b" stroke-width="2" stroke-linecap="round" stroke-linejoin="round">
  <!-- Teacher at easel - refined hand-drawn style -->

  <!-- Easel -->
  <path d="M28 58l8-30"/>
  <path d="M52 58l-8-30"/>
  <path d="M40 58v-22"/>

  <!-- Easel crossbar -->
  <path d="M30 42h20"/>

  <!-- Canvas on easel -->
  <rect x="30" y="14" width="20" height="16" rx="1" fill="#aa6e0b" fill-opacity="0.08"/>

  <!-- Simple art on canvas - abstract strokes -->
  <path d="M34 26l4-6l3 4l5-7l4 9" stroke-width="1.5"/>
  <circle cx="48" cy="18" r="2" fill="#aa6e0b" fill-opacity="0.3"/>

  <!-- Instructor figure -->
  <!-- Head -->
  <circle cx="14" cy="24" r="5" fill="#aa6e0b" fill-opacity="0.1"/>

  <!-- Body -->
  <path d="M14 29v14" stroke-width="2.5"/>

  <!-- Arms - one pointing to canvas -->
  <path d="M14 34l12-4"/>
  <path d="M14 36l-6 6"/>

  <!-- Legs -->
  <path d="M14 43l-4 13"/>
  <path d="M14 43l4 13"/>

  <!-- Paintbrush in extended hand -->
  <path d="M26 30l4-6" stroke-width="1.5"/>
  <ellipse cx="29" cy="25" rx="1" ry="2.5" transform="rotate(-55 29 25)" fill="#aa6e0b"/>
</svg>