<svg xmlns="http://www.w3.org/2000/svg" viewBox="0 0 64 64" fill="none" stroke="#aa6e0b" stroke-width="2" stroke-linecap="round" stroke-linejoin="round">
  <!-- Art supplies - refined hand-drawn style -->

  <!-- Container/cup -->
  <path d="M16 54h32" stroke-width="1.5"/>
  <path d="M18 54v-8c0-1 1-2 2-2h24c1 0 2 1 2 2v8" fill="#aa6e0b" fill-opacity="0.06"/>

  <!-- Paint tube -->
  <rect x="20" y="28" width="6" height="16" rx="2" fill="#aa6e0b" fill-opacity="0.15"/>
  <rect x="21.5" y="22" width="3" height="6" rx="1"/>
  <path d="M23 16v6" stroke-width="1.5"/>
  <circle cx="23" cy="14" r="1.5" fill="#aa6e0b"/>

  <!-- Paintbrush 1 - tall -->
  <rect x="31" y="20" width="2.5" height="24" rx="1" fill="#aa6e0b" fill-opacity="0.1"/>
  <path d="M32.25 14v6" stroke-width="1.5"/>
  <ellipse cx="32.25" cy="11" rx="1.5" ry="4" fill="#aa6e0b"/>

  <!-- Paintbrush 2 - medium -->
  <rect x="38" y="26" width="2" height="18" rx="1" fill="#aa6e0b" fill-opacity="0.08"/>
  <path d="M39 20v6" stroke-width="1.2"/>
  <ellipse cx="39" cy="17" rx="1.2" ry="3.5" fill="#aa6e0b"/>

  <!-- Pencil -->
  <rect x="44" y="24" width="3" height="20" rx="0.5" fill="#aa6e0b" fill-opacity="0.12"/>
  <polygon points="45.5,18 44,24 47,24" fill="#aa6e0b" fill-opacity="0.3"/>
  <path d="M45.5 14v4" stroke-width="1"/>
</svg>